<svg version="1.1" id="Layer_1" xmlns="http://www.w3.org/2000/svg" xmlns:xlink="http://www.w3.org/1999/xlink" x="0px" y="0px"
	 width="64px" viewBox="0 0 232 233" enable-background="new 0 0 232 233" xml:space="preserve">
<path fill="#000000" opacity="1.000000" stroke="none" 
	d="
M111.000000,234.000000 
	C74.000000,234.000000 37.500004,234.000000 1.000005,234.000000 
	C1.000003,156.333344 1.000003,78.666679 1.000002,1.000015 
	C78.333321,1.000010 155.666641,1.000010 232.999969,1.000005 
	C232.999985,78.666649 232.999985,156.333298 233.000000,233.999969 
	C192.500000,234.000000 152.000000,234.000000 111.000000,234.000000 
M89.246437,55.173862 
	C82.492142,57.607845 75.737846,60.041832 67.697342,62.939316 
	C100.325012,90.263107 131.702118,116.539619 163.310944,143.010178 
	C171.527618,130.550400 174.160370,117.066582 170.653412,103.192093 
	C164.873367,80.324646 150.853943,64.139778 128.202347,56.216515 
	C116.018295,51.954678 103.520172,52.470215 90.542511,54.283138 
	C90.232773,54.426041 90.059151,54.667019 89.246437,55.173862 
M75.999748,134.574982 
	C74.256554,161.007492 94.541336,186.513824 118.670013,194.774765 
	C140.230042,202.156296 168.514343,196.456833 178.106430,186.568939 
	C146.819702,160.453384 115.548180,134.350494 83.946434,107.971970 
	C79.168854,116.612633 75.669281,124.520180 75.999748,134.574982 
z"/>
<path fill="#EE7D13" opacity="1.000000" stroke="none" 
	d="
M90.991837,54.393814 
	C103.520172,52.470215 116.018295,51.954678 128.202347,56.216515 
	C150.853943,64.139778 164.873367,80.324646 170.653412,103.192093 
	C174.160370,117.066582 171.527618,130.550400 163.310944,143.010178 
	C131.702118,116.539619 100.325012,90.263107 67.697342,62.939316 
	C75.737846,60.041832 82.492142,57.607845 89.823471,55.036392 
	C90.650124,54.792019 90.847229,54.623650 90.991837,54.393814 
z"/>
<path fill="#F07E13" opacity="1.000000" stroke="none" 
	d="
M75.999702,134.096512 
	C75.669281,124.520180 79.168854,116.612633 83.946434,107.971970 
	C115.548180,134.350494 146.819702,160.453384 178.106430,186.568939 
	C168.514343,196.456833 140.230042,202.156296 118.670013,194.774765 
	C94.541336,186.513824 74.256554,161.007492 75.999702,134.096512 
z"/>
<path fill="#D46F11" opacity="1.000000" stroke="none" 
	d="
M90.767174,54.338478 
	C90.847229,54.623650 90.650124,54.792019 90.211075,54.952499 
	C90.059151,54.667019 90.232773,54.426041 90.767174,54.338478 
z"/>
</svg>